# xmcd CD database file
#
# Track frame offsets:
#	150
#	18765
#	50095
#	72520
#	96505
#	123770
#	138705
#	164295
#	200442
#	222632
#	253792
#
# Disc length: 3793 seconds
#
# Revision: 0
# Processed by: cddbd v1.5.2PL0 Copyright (c) Steve Scherf et al.
# Submitted via: CDex 1.70beta2
#
DISCID=ab0ecf0b
DTITLE=Various Artist - キッス・ジャズ・スタイル～ジャズ・シティ・イン・神戸
DYEAR=1900
DGENRE=Jazz
TTITLE0=あなたと夜と音楽と
TTITLE1=アイ・フォール・イン・ラヴ・トゥ・イージリー
TTITLE2=ラヴ・フォー・セール
TTITLE3=ニューヨークの想い
TTITLE4=マイ・ファニー・バレンタイン
TTITLE5=いつの頃からか
TTITLE6=マイ・フーリッシュ・ハート
TTITLE7=不思議の国のアリス
TTITLE8=ボーン・トゥ・ビー・ブルー
TTITLE9=グッド・ライフ
TTITLE10=オール・ザ・シングス・ユー・アー
EXTD=
EXTT0=
EXTT1=
EXTT2=
EXTT3=
EXTT4=
EXTT5=
EXTT6=
EXTT7=
EXTT8=
EXTT9=
EXTT10=
PLAYORDER=
